<svg viewBox="0 0 160 160" width="240" height="240" xmlns="http://www.w3.org/2000/svg">
<g transform="translate(0.00,0.00) scale(1.0000)">
<rect width="160" height="160" fill="#c8d8de"/>
<path d="M 43.23 109.77 A 52.00 52.00 0 1 1 116.77 109.77" fill="none" stroke="#125e99" stroke-width="11" stroke-opacity="0.35" stroke-linecap="round"/>
<path d="M 36.87 116.13 A 61.00 61.00 0 0 1 40.79 26.27" fill="none" stroke="#ff0000" stroke-width="3" stroke-opacity="0.78" stroke-linecap="butt"/>
<path d="M 40.79 26.27 A 61.00 61.00 0 0 1 94.76 13.81" fill="none" stroke="#ce6100" stroke-width="3" stroke-opacity="0.78" stroke-linecap="butt"/>
<polyline points="35.5,117.5 32.6,120.4" fill="none" stroke="#125e99" stroke-width="2" stroke-opacity="1.00" stroke-linecap="butt"/>
<polyline points="21.8,48.9 18.1,47.4" fill="none" stroke="#125e99" stroke-width="2" stroke-opacity="1.00" stroke-linecap="butt"/>
<polyline points="80.0,10.0 80.0,6.0" fill="none" stroke="#125e99" stroke-width="2" stroke-opacity="1.00" stroke-linecap="butt"/>
<polyline points="138.2,48.9 141.9,47.4" fill="none" stroke="#125e99" stroke-width="2" stroke-opacity="1.00" stroke-linecap="butt"/>
<polyline points="124.5,117.5 127.4,120.4" fill="none" stroke="#125e99" stroke-width="2" stroke-opacity="1.00" stroke-linecap="butt"/>
<path d="M 43.23 109.77 A 52.00 52.00 0 1 1 127.87 93.32" fill="none" stroke="#125e99" stroke-width="4" stroke-opacity="0.43" stroke-linecap="round"/>
<path d="M 43.23 109.77 A 52.00 52.00 0 1 1 130.46 60.42" fill="none" stroke="#21925a" stroke-width="11" stroke-opacity="1.00" stroke-linecap="round"/>
<polyline points="87.8,71.1 101.3,67.7" fill="none" stroke="#000000" stroke-width="6" stroke-opacity="1.00" stroke-linecap="round"/>
<polyline points="98.4,68.4 114.0,64.5" fill="none" stroke="#000000" stroke-width="4" stroke-opacity="1.00" stroke-linecap="round"/>
<polyline points="113.0,64.8 124.6,61.9" fill="none" stroke="#000000" stroke-width="2" stroke-opacity="1.00" stroke-linecap="round"/>
<circle cx="80" cy="73" r="4" fill="#125e99" fill-opacity="1.00"/>
<polyline points="44.3,44.1 31.8,34.0" fill="none" stroke="#125e99" stroke-width="2" stroke-opacity="1.00" stroke-linecap="butt"/>
<polyline points="122.3,91.0 137.1,97.2" fill="none" stroke="#125e99" stroke-width="2" stroke-opacity="1.00" stroke-linecap="butt"/>
<clipPath id="clip1"><rect x="45" y="79" width="46" height="21"/></clipPath>
<g clip-path="url(#clip1)">
<text x="68.0" y="95.4" font-size="21" fill="#000000" text-anchor="middle" font-family="DejaVu Sans, Verdana, sans-serif" textLength="23.0" lengthAdjust="spacingAndGlyphs" fill-opacity="1.00">78</text>
</g>
<clipPath id="clip2"><rect x="85" y="82" width="18" height="17"/></clipPath>
<g clip-path="url(#clip2)">
<text x="85.0" y="95.3" font-size="17" fill="#125e99" text-anchor="start" font-family="DejaVu Sans, Verdana, sans-serif" textLength="18.0" lengthAdjust="spacingAndGlyphs" fill-opacity="1.00">dB</text>
</g>
<clipPath id="clip3"><rect x="0" y="115" width="160" height="12"/></clipPath>
<g clip-path="url(#clip3)">
<text x="80.0" y="124.4" font-size="12" fill="#125e99" text-anchor="middle" font-family="DejaVu Sans, Verdana, sans-serif" textLength="26.0" lengthAdjust="spacingAndGlyphs" fill-opacity="1.00">RSSI</text>
</g>
</g>
</svg>