<svg viewBox="0 0 120 220" width="180" height="330" xmlns="http://www.w3.org/2000/svg">
<g transform="translate(0.00,0.00) scale(1.0000)">
<rect width="120" height="220" fill="#c8d8de"/>
<path d="M 30.30 96.70 A 42.00 42.00 0 1 1 89.70 96.70" fill="none" stroke="#125e99" stroke-width="8" stroke-opacity="0.35" stroke-linecap="round"/>
<path d="M 25.35 101.65 A 49.00 49.00 0 0 1 28.50 29.46" fill="none" stroke="#ff0000" stroke-width="2" stroke-opacity="0.78" stroke-linecap="butt"/>
<path d="M 28.50 29.46 A 49.00 49.00 0 0 1 71.85 19.46" fill="none" stroke="#ce6100" stroke-width="2" stroke-opacity="0.78" stroke-linecap="butt"/>
<polyline points="23.9,103.1 21.8,105.2" fill="none" stroke="#125e99" stroke-width="2" stroke-opacity="1.00" stroke-linecap="butt"/>
<polyline points="12.9,47.5 10.1,46.3" fill="none" stroke="#125e99" stroke-width="2" stroke-opacity="1.00" stroke-linecap="butt"/>
<polyline points="60.0,16.0 60.0,13.0" fill="none" stroke="#125e99" stroke-width="2" stroke-opacity="1.00" stroke-linecap="butt"/>
<polyline points="107.1,47.5 109.9,46.3" fill="none" stroke="#125e99" stroke-width="2" stroke-opacity="1.00" stroke-linecap="butt"/>
<polyline points="96.1,103.1 98.2,105.2" fill="none" stroke="#125e99" stroke-width="2" stroke-opacity="1.00" stroke-linecap="butt"/>
<path d="M 30.30 96.70 A 42.00 42.00 0 1 1 98.66 83.41" fill="none" stroke="#125e99" stroke-width="3" stroke-opacity="0.43" stroke-linecap="round"/>
<path d="M 30.30 96.70 A 42.00 42.00 0 1 1 100.75 56.84" fill="none" stroke="#21925a" stroke-width="8" stroke-opacity="1.00" stroke-linecap="round"/>
<polyline points="65.8,65.5 76.5,62.9" fill="none" stroke="#000000" stroke-width="4" stroke-opacity="1.00" stroke-linecap="round"/>
<polyline points="75.5,63.1 87.2,60.2" fill="none" stroke="#000000" stroke-width="2" stroke-opacity="1.00" stroke-linecap="round"/>
<polyline points="86.2,60.5 95.9,58.0" fill="none" stroke="#000000" stroke-width="2" stroke-opacity="1.00" stroke-linecap="round"/>
<circle cx="60" cy="67" r="3" fill="#125e99" fill-opacity="1.00"/>
<polyline points="31.2,43.7 21.1,35.5" fill="none" stroke="#125e99" stroke-width="2" stroke-opacity="1.00" stroke-linecap="butt"/>
<polyline points="94.1,81.5 106.0,86.5" fill="none" stroke="#125e99" stroke-width="2" stroke-opacity="1.00" stroke-linecap="butt"/>
<clipPath id="clip1"><rect x="16" y="152" width="63" height="29"/></clipPath>
<g clip-path="url(#clip1)">
<text x="47.5" y="174.6" font-size="29" fill="#000000" text-anchor="middle" font-family="DejaVu Sans, Verdana, sans-serif" textLength="31.0" lengthAdjust="spacingAndGlyphs" fill-opacity="1.00">78</text>
</g>
<clipPath id="clip2"><rect x="69" y="163" width="18" height="17"/></clipPath>
<g clip-path="url(#clip2)">
<text x="69.0" y="176.3" font-size="17" fill="#125e99" text-anchor="start" font-family="DejaVu Sans, Verdana, sans-serif" textLength="18.0" lengthAdjust="spacingAndGlyphs" fill-opacity="1.00">dB</text>
</g>
<clipPath id="clip3"><rect x="6" y="195" width="108" height="12"/></clipPath>
<g clip-path="url(#clip3)">
<text x="60.0" y="204.4" font-size="12" fill="#125e99" text-anchor="middle" font-family="DejaVu Sans, Verdana, sans-serif" textLength="26.0" lengthAdjust="spacingAndGlyphs" fill-opacity="1.00">RSSI</text>
</g>
</g>
</svg>