<svg viewBox="0 0 200 200" width="300" height="300" xmlns="http://www.w3.org/2000/svg">
<g transform="translate(0.00,0.00) scale(1.0000)">
<rect width="200" height="200" fill="#1a1a1a"/>
<path d="M 51.21 141.79 A 69.00 69.00 0 1 1 148.79 141.79" fill="none" stroke="#9fb4c8" stroke-width="12" stroke-opacity="0.35" stroke-linecap="round"/>
<path d="M 43.43 149.57 A 80.00 80.00 0 0 1 48.58 31.72" fill="none" stroke="#ff0000" stroke-width="4" stroke-opacity="0.78" stroke-linecap="butt"/>
<path d="M 48.58 31.72 A 80.00 80.00 0 0 1 119.35 15.38" fill="none" stroke="#ce6100" stroke-width="4" stroke-opacity="0.78" stroke-linecap="butt"/>
<polyline points="42.0,151.0 38.5,154.5" fill="none" stroke="#9fb4c8" stroke-width="2" stroke-opacity="1.00" stroke-linecap="butt"/>
<polyline points="18.0,93.0 13.0,93.0" fill="none" stroke="#9fb4c8" stroke-width="2" stroke-opacity="1.00" stroke-linecap="butt"/>
<polyline points="42.0,35.0 38.5,31.5" fill="none" stroke="#9fb4c8" stroke-width="2" stroke-opacity="1.00" stroke-linecap="butt"/>
<polyline points="100.0,11.0 100.0,6.0" fill="none" stroke="#9fb4c8" stroke-width="2" stroke-opacity="1.00" stroke-linecap="butt"/>
<polyline points="158.0,35.0 161.5,31.5" fill="none" stroke="#9fb4c8" stroke-width="2" stroke-opacity="1.00" stroke-linecap="butt"/>
<polyline points="182.0,93.0 187.0,93.0" fill="none" stroke="#9fb4c8" stroke-width="2" stroke-opacity="1.00" stroke-linecap="butt"/>
<polyline points="158.0,151.0 161.5,154.5" fill="none" stroke="#9fb4c8" stroke-width="2" stroke-opacity="1.00" stroke-linecap="butt"/>
<polyline points="24.2,124.4 22.4,125.1" fill="none" stroke="#9fb4c8" stroke-width="1" stroke-opacity="0.43" stroke-linecap="butt"/>
<polyline points="24.2,61.6 22.4,60.9" fill="none" stroke="#9fb4c8" stroke-width="1" stroke-opacity="0.43" stroke-linecap="butt"/>
<polyline points="68.6,17.2 67.9,15.4" fill="none" stroke="#9fb4c8" stroke-width="1" stroke-opacity="0.43" stroke-linecap="butt"/>
<polyline points="131.4,17.2 132.1,15.4" fill="none" stroke="#9fb4c8" stroke-width="1" stroke-opacity="0.43" stroke-linecap="butt"/>
<polyline points="175.8,61.6 177.6,60.9" fill="none" stroke="#9fb4c8" stroke-width="1" stroke-opacity="0.43" stroke-linecap="butt"/>
<polyline points="175.8,124.4 177.6,125.1" fill="none" stroke="#9fb4c8" stroke-width="1" stroke-opacity="0.43" stroke-linecap="butt"/>
<path d="M 51.21 141.79 A 69.00 69.00 0 1 1 163.51 119.96" fill="none" stroke="#9fb4c8" stroke-width="5" stroke-opacity="0.43" stroke-linecap="round"/>
<path d="M 51.21 141.79 A 69.00 69.00 0 1 1 166.95 76.31" fill="none" stroke="#21925a" stroke-width="12" stroke-opacity="1.00" stroke-linecap="round"/>
<polyline points="110.7,90.3 129.1,85.7" fill="none" stroke="#ffffff" stroke-width="8" stroke-opacity="1.00" stroke-linecap="round"/>
<polyline points="126.2,86.5 145.6,81.6" fill="none" stroke="#ffffff" stroke-width="4" stroke-opacity="1.00" stroke-linecap="round"/>
<polyline points="144.6,81.9 160.2,78.0" fill="none" stroke="#ffffff" stroke-width="2" stroke-opacity="1.00" stroke-linecap="round"/>
<circle cx="100" cy="93" r="6" fill="#9fb4c8" fill-opacity="1.00"/>
<polyline points="51.8,54.0 37.1,42.0" fill="none" stroke="#9fb4c8" stroke-width="2" stroke-opacity="1.00" stroke-linecap="butt"/>
<polyline points="157.1,117.2 174.6,124.6" fill="none" stroke="#9fb4c8" stroke-width="2" stroke-opacity="1.00" stroke-linecap="butt"/>
<clipPath id="clip1"><rect x="56" y="101" width="63" height="29"/></clipPath>
<g clip-path="url(#clip1)">
<text x="87.5" y="123.6" font-size="29" fill="#ffffff" text-anchor="middle" font-family="DejaVu Sans, Verdana, sans-serif" textLength="31.0" lengthAdjust="spacingAndGlyphs" fill-opacity="1.00">78</text>
</g>
<clipPath id="clip2"><rect x="109" y="112" width="18" height="17"/></clipPath>
<g clip-path="url(#clip2)">
<text x="109.0" y="125.3" font-size="17" fill="#9fb4c8" text-anchor="start" font-family="DejaVu Sans, Verdana, sans-serif" textLength="18.0" lengthAdjust="spacingAndGlyphs" fill-opacity="1.00">dB</text>
</g>
<clipPath id="clip3"><rect x="0" y="150" width="200" height="12"/></clipPath>
<g clip-path="url(#clip3)">
<text x="100.0" y="159.4" font-size="12" fill="#9fb4c8" text-anchor="middle" font-family="DejaVu Sans, Verdana, sans-serif" textLength="26.0" lengthAdjust="spacingAndGlyphs" fill-opacity="1.00">RSSI</text>
</g>
<clipPath id="clip4"><rect x="28" y="155" width="6" height="12"/></clipPath>
<g clip-path="url(#clip4)">
<text x="31.0" y="164.4" font-size="12" fill="#9fb4c8" text-anchor="middle" font-family="DejaVu Sans, Verdana, sans-serif" textLength="6.0" lengthAdjust="spacingAndGlyphs" fill-opacity="1.00">0</text>
</g>
<clipPath id="clip5"><rect x="162" y="159" width="19" height="12"/></clipPath>
<g clip-path="url(#clip5)">
<text x="171.5" y="168.4" font-size="12" fill="#9fb4c8" text-anchor="middle" font-family="DejaVu Sans, Verdana, sans-serif" textLength="19.0" lengthAdjust="spacingAndGlyphs" fill-opacity="1.00">100</text>
</g>
</g>
</svg>