<svg viewBox="0 0 260 220" width="299" height="252" xmlns="http://www.w3.org/2000/svg">
<g transform="translate(0.00,0.00) scale(1.0000)">
<rect width="260" height="220" fill="#1a1a1a"/>
<path d="M 74.14 158.86 A 79.00 79.00 0 1 1 185.86 158.86" fill="none" stroke="#9fb4c8" stroke-width="12" stroke-opacity="0.35" stroke-linecap="round"/>
<path d="M 66.36 166.64 A 90.00 90.00 0 0 1 72.15 34.06" fill="none" stroke="#ff0000" stroke-width="4" stroke-opacity="0.78" stroke-linecap="butt"/>
<path d="M 72.15 34.06 A 90.00 90.00 0 0 1 151.77 15.67" fill="none" stroke="#ce6100" stroke-width="4" stroke-opacity="0.78" stroke-linecap="butt"/>
<polyline points="64.9,168.1 61.4,171.6" fill="none" stroke="#9fb4c8" stroke-width="2" stroke-opacity="1.00" stroke-linecap="butt"/>
<polyline points="38.0,103.0 33.0,103.0" fill="none" stroke="#9fb4c8" stroke-width="2" stroke-opacity="1.00" stroke-linecap="butt"/>
<polyline points="64.9,37.9 61.4,34.4" fill="none" stroke="#9fb4c8" stroke-width="2" stroke-opacity="1.00" stroke-linecap="butt"/>
<polyline points="130.0,11.0 130.0,6.0" fill="none" stroke="#9fb4c8" stroke-width="2" stroke-opacity="1.00" stroke-linecap="butt"/>
<polyline points="195.1,37.9 198.6,34.4" fill="none" stroke="#9fb4c8" stroke-width="2" stroke-opacity="1.00" stroke-linecap="butt"/>
<polyline points="222.0,103.0 227.0,103.0" fill="none" stroke="#9fb4c8" stroke-width="2" stroke-opacity="1.00" stroke-linecap="butt"/>
<polyline points="195.1,168.1 198.6,171.6" fill="none" stroke="#9fb4c8" stroke-width="2" stroke-opacity="1.00" stroke-linecap="butt"/>
<polyline points="45.0,138.2 43.2,139.0" fill="none" stroke="#9fb4c8" stroke-width="1" stroke-opacity="0.43" stroke-linecap="butt"/>
<polyline points="45.0,67.8 43.2,67.0" fill="none" stroke="#9fb4c8" stroke-width="1" stroke-opacity="0.43" stroke-linecap="butt"/>
<polyline points="94.8,18.0 94.0,16.2" fill="none" stroke="#9fb4c8" stroke-width="1" stroke-opacity="0.43" stroke-linecap="butt"/>
<polyline points="165.2,18.0 166.0,16.2" fill="none" stroke="#9fb4c8" stroke-width="1" stroke-opacity="0.43" stroke-linecap="butt"/>
<polyline points="215.0,67.8 216.8,67.0" fill="none" stroke="#9fb4c8" stroke-width="1" stroke-opacity="0.43" stroke-linecap="butt"/>
<polyline points="215.0,138.2 216.8,139.0" fill="none" stroke="#9fb4c8" stroke-width="1" stroke-opacity="0.43" stroke-linecap="butt"/>
<path d="M 74.14 158.86 A 79.00 79.00 0 1 1 202.72 133.87" fill="none" stroke="#9fb4c8" stroke-width="5" stroke-opacity="0.43" stroke-linecap="round"/>
<path d="M 74.14 158.86 A 79.00 79.00 0 1 1 206.65 83.89" fill="none" stroke="#21925a" stroke-width="12" stroke-opacity="1.00" stroke-linecap="round"/>
<polyline points="141.6,100.1 163.0,94.8" fill="none" stroke="#ffffff" stroke-width="8" stroke-opacity="1.00" stroke-linecap="round"/>
<polyline points="160.1,95.5 183.4,89.7" fill="none" stroke="#ffffff" stroke-width="4" stroke-opacity="1.00" stroke-linecap="round"/>
<polyline points="182.4,89.9 199.9,85.6" fill="none" stroke="#ffffff" stroke-width="2" stroke-opacity="1.00" stroke-linecap="round"/>
<circle cx="130" cy="103" r="7" fill="#9fb4c8" fill-opacity="1.00"/>
<polyline points="74.0,57.7 59.3,45.7" fill="none" stroke="#9fb4c8" stroke-width="2" stroke-opacity="1.00" stroke-linecap="butt"/>
<polyline points="196.3,131.1 213.8,138.6" fill="none" stroke="#9fb4c8" stroke-width="2" stroke-opacity="1.00" stroke-linecap="butt"/>
<clipPath id="clip1"><rect x="86" y="112" width="63" height="29"/></clipPath>
<g clip-path="url(#clip1)">
<text x="117.5" y="134.6" font-size="29" fill="#ffffff" text-anchor="middle" font-family="DejaVu Sans, Verdana, sans-serif" textLength="31.0" lengthAdjust="spacingAndGlyphs" fill-opacity="1.00">78</text>
</g>
<clipPath id="clip2"><rect x="139" y="123" width="18" height="17"/></clipPath>
<g clip-path="url(#clip2)">
<text x="139.0" y="136.3" font-size="17" fill="#9fb4c8" text-anchor="start" font-family="DejaVu Sans, Verdana, sans-serif" textLength="18.0" lengthAdjust="spacingAndGlyphs" fill-opacity="1.00">dB</text>
</g>
<clipPath id="clip3"><rect x="0" y="172" width="260" height="12"/></clipPath>
<g clip-path="url(#clip3)">
<text x="130.0" y="181.4" font-size="12" fill="#9fb4c8" text-anchor="middle" font-family="DejaVu Sans, Verdana, sans-serif" textLength="26.0" lengthAdjust="spacingAndGlyphs" fill-opacity="1.00">RSSI</text>
</g>
<clipPath id="clip4"><rect x="80" y="143" width="50" height="12"/></clipPath>
<g clip-path="url(#clip4)">
<text x="80.0" y="152.4" font-size="12" fill="#9fb4c8" text-anchor="start" font-family="DejaVu Sans, Verdana, sans-serif" textLength="39.0" lengthAdjust="spacingAndGlyphs" fill-opacity="1.00">min 31</text>
</g>
<clipPath id="clip5"><rect x="130" y="143" width="50" height="12"/></clipPath>
<g clip-path="url(#clip5)">
<text x="180.0" y="152.4" font-size="12" fill="#9fb4c8" text-anchor="end" font-family="DejaVu Sans, Verdana, sans-serif" textLength="39.0" lengthAdjust="spacingAndGlyphs" fill-opacity="1.00">max 92</text>
</g>
<clipPath id="clip6"><rect x="51" y="172" width="6" height="12"/></clipPath>
<g clip-path="url(#clip6)">
<text x="54.0" y="181.4" font-size="12" fill="#9fb4c8" text-anchor="middle" font-family="DejaVu Sans, Verdana, sans-serif" textLength="6.0" lengthAdjust="spacingAndGlyphs" fill-opacity="1.00">0</text>
</g>
<clipPath id="clip7"><rect x="199" y="176" width="19" height="12"/></clipPath>
<g clip-path="url(#clip7)">
<text x="208.5" y="185.4" font-size="12" fill="#9fb4c8" text-anchor="middle" font-family="DejaVu Sans, Verdana, sans-serif" textLength="19.0" lengthAdjust="spacingAndGlyphs" fill-opacity="1.00">100</text>
</g>
</g>
</svg>